<svg version="1.1" xmlns="http://www.w3.org/2000/svg" xmlns:xlink="http://www.w3.org/1999/xlink" preserveAspectRatio="xMidYMid meet" viewBox="369 335 501 73"><g data-item-type="image" data-item="Image" data-logo-item="" id="logo__item--logo_0" class="logo__item">
    <g class="logo__item__inner" transform="translate(531.1618747066389 299.5) scale(1.4167483866992845 1.4167483866992845) rotate(0 0 0)">
        
<g>
	<path fill-rule="evenodd" clip-rule="evenodd" fill="#212121" d="M7.65,57.579c0.915,0.305,1.967,0.478,3.305,0.363   c0.745,0.114-0.075-1.061-0.369-1.099c0.873-1.012,2.225,0.588,3.305-0.367c1.085-0.32-0.851-0.549-0.368-1.471   c5.612-0.186,7.864-5.534,14.686-3.304c-0.579,2.229-1.727,0.678-2.937,1.103c-5.298,1.853-6.645,8.646-12.851,8.446   C10.178,61.175,8.058,60.233,7.65,57.579" data-part-id="logo__item--logo_0__0"></path>
	<path fill-rule="evenodd" clip-rule="evenodd" fill="#212121" d="M59.418,37.384c-1.306,0.057-2.184,2.444-2.937,1.838   c-0.157-0.702-1.05-0.669-0.735-1.838c1.36,0.258,1.575-0.625,2.937-0.367c0.109-0.965-1.423-0.292-1.1-1.471h3.306   c0.015-0.625-0.272-0.95-0.736-1.098c0.249-0.807,3.916,1.122,2.569-1.103c3.122,0.735,7.782,2.597,10.646,0.367   c-0.482,3.59,6.68,4.774,8.446,8.446c-1.633,1.862-10.417,1.165-11.75-1.838c-3.278,0.759-4.631,3.447-5.507,6.608   c6.639-0.817,17.593-2,23.497,1.47c0.233,0.802-1.041,1.169,0.367,1.103c-3.223,1.17-6.985-0.64-10.647-0.368   c-6.347,0.468-11.184,3.919-14.319,7.343c-1.03-0.435-2.108-0.826-3.303-1.103c-3.236,2.979-11.419,6.211-16.154,2.205   c-0.576,1.012-1.141,2.038-1.47,3.304c-3.148,5.348-11.582,1.031-18.357,1.834c-6.898,0.821-7.876,6.917-12.484,8.813   c-0.63-1.199,1.759-1.767,0-1.838c4.192-4.255,8.048-8.839,12.852-12.481c-0.02,1.365,1.633,1.056,2.938,1.099   c-1.29-7.424,6.651-13.387,13.951-9.912c3.313,0.253,5.855-0.262,8.443-0.735c-2.658-0.764-6.215-0.635-6.975-3.304   c0.884-0.148,0.797,0.673,1.835,0.368c-2.509-1.285-5.507-2.082-6.608-4.774c1.556,0.773,3.06,1.595,5.142,1.837   c-2.772-1.757-5.637-3.422-6.611-6.975c2.005,0.563,3.099,2.043,4.774,2.936c-0.692-2.005-4.501-4.063-4.406-8.078   c2.42,2.11,4.629,4.426,7.343,6.24c-0.763-2.177-4.553-4.498-4.771-8.441c5.324,4.832,11.923,8.389,13.95,16.52   C55.818,42.105,56.878,39.007,59.418,37.384 M74.837,46.928c-10.484,0.085,5.912,0.797,7.346,0.367   C79.537,47.023,77.749,46.908,74.837,46.928 M26.375,59.78c0.707,0.076,0.979-1.595,1.836-0.735   c-0.666-0.664-4.369,0.701-4.773-0.735c-1.073,1.208-2.787,3.156-4.041,4.407c-3.977,3.981,3.984-3.772,4.407-4.039   C24.859,59.384,25.317,59.666,26.375,59.78" data-part-id="logo__item--logo_0__1"></path>
	<path fill-rule="evenodd" clip-rule="evenodd" fill="#bc8686" d="M92.351,73.167c0,0.907-18.056,1.639-40.329,1.639   c-22.274,0-40.334-0.731-40.334-1.639s18.06-1.637,40.334-1.637C74.295,71.53,92.351,72.26,92.351,73.167" data-part-id="logo__item--logo_0__2"></path>
</g>

    </g>
</g><g data-item-type="text" data-item="Business" id="logo__item--business" class="logo__item">
                <g class="logo__item__inner" transform="translate(371.09375 384.4812821717739) scale(1 1) rotate(0 0 0)">
                    <text data-part-id="logo__item--business" dy="0" dominant-baseline="auto" alignment-baseline="auto" font-family="Monoton" font-size="32px" fill="#c48eaa" letter-spacing="0" font-weight="normal" font-style="normal" data-font-family="Monoton" data-font-weight="normal" data-font-style="normal" data-ttf-url="/builder_assets/fontsttf/font-montserrat-bold-normal.ttf" data-font-filename="monoton-normal-normal">Debuchery      After Party</text>
                </g>
            </g></svg>